<svg width="211" height="212" viewBox="0 0 211 212" fill="none" xmlns="http://www.w3.org/2000/svg">
<g clip-path="url(#clip0_447_1074)">
<path d="M105.263 211.5C163.398 211.5 210.526 164.372 210.526 106.237C210.526 48.1016 163.398 0.973633 105.263 0.973633C47.1279 0.973633 0 48.1016 0 106.237C0 164.372 47.1279 211.5 105.263 211.5Z" fill="#FF0086"/>
<path d="M114.094 141.249C107.128 143.188 100.829 143.667 95.1993 142.684C89.5683 141.702 84.82 139.412 80.9534 135.817C77.0868 132.222 74.3316 127.473 72.6877 121.569C71.459 117.154 71.1119 112.967 71.6475 109.006C72.183 105.046 73.5241 101.406 75.6696 98.0849C77.8161 94.7663 80.7742 91.8494 84.545 89.3382C88.3148 86.8271 92.7973 84.8485 97.9905 83.4034C101.473 82.4342 104.997 81.8543 108.561 81.6638C112.125 81.4753 115.365 81.7183 118.284 82.3961C119.807 82.7174 120.926 83.3087 121.644 84.1687C122.361 85.0308 122.723 85.9619 122.729 86.962C122.734 87.9642 122.43 88.8933 121.816 89.7523C121.201 90.6113 120.32 91.2437 119.171 91.6495C118.021 92.0553 116.646 92.0811 115.046 91.7227C112.786 91.2056 110.45 91.0243 108.037 91.1809C105.624 91.3364 103.245 91.7412 100.902 92.3932C96.4054 93.6457 92.82 95.4749 90.1471 97.88C87.4733 100.288 85.7511 103.174 84.9828 106.539C84.2134 109.906 84.4224 113.716 85.6069 117.972C86.777 122.174 88.5671 125.545 90.9804 128.082C93.3927 130.621 96.3652 132.229 99.8981 132.907C103.43 133.587 107.444 133.299 111.942 132.047C114.348 131.377 116.653 130.464 118.855 129.305C121.057 128.148 123.056 126.747 124.85 125.1C126.05 124.021 127.216 123.366 128.346 123.137C129.476 122.909 130.503 122.982 131.426 123.355C132.349 123.729 133.059 124.319 133.557 125.125C134.054 125.933 134.243 126.855 134.123 127.891C134.002 128.928 133.468 129.951 132.52 130.959C130.416 133.208 127.722 135.233 124.437 137.035C121.151 138.838 117.704 140.243 114.093 141.247L114.094 141.249Z" fill="white"/>
<path d="M51.0612 70.3813C49.9869 69.3071 47.4243 70.128 45.3375 72.2147C43.2508 74.3015 42.4299 76.8641 43.5041 77.9384C44.5784 79.0127 45.7433 76.2471 47.8301 74.1604C49.9169 72.0736 52.1355 71.4567 51.0612 70.3824V70.3813Z" fill="white"/>
<path d="M131.851 56.7931C133.938 54.7064 136.156 54.0894 135.082 53.0151C134.008 51.9408 131.445 52.7618 129.358 54.8485C127.272 56.9353 126.451 59.4979 127.525 60.5722C128.599 61.6465 129.764 58.8809 131.851 56.7942V56.7931Z" fill="white"/>
<path d="M189.674 98.1197C189.243 95.9217 187.843 92.8132 183.622 90.4813C181.412 89.2607 178.63 88.6602 175.094 87.9907C170.296 87.0823 163.43 86.7372 155.779 86.831C155.282 85.7155 154.795 84.6525 154.326 83.6565C154.953 83.3661 155.555 83.021 156.126 82.6214C158.952 80.6551 161.191 77.6702 162.783 73.7511C163.974 70.8208 164.586 67.8739 164.886 65.9201C165.324 63.0948 164.866 60.2623 163.559 57.7234C162.202 55.0835 159.657 51.9626 156.753 49.3753C152.02 45.1606 146.104 41.9336 139.648 41.9336C134.585 41.9336 129.513 43.4539 125.37 46.2204C121.012 49.1271 117.92 53.2264 116.668 57.7635C116.551 58.191 116.46 58.6215 116.395 59.0593C111.88 59.2045 105.692 59.7092 98.3572 61.0873C90.8084 62.5046 83.2297 64.6151 75.7355 67.3785C74.4078 65.0168 72.593 62.9702 70.464 61.4386C67.2793 59.1479 63.4765 57.9871 59.167 57.985C54.0789 57.985 48.9907 59.2488 44.5947 61.7033C41.6438 63.3523 38.834 65.3567 36.5299 68.1582C32.8343 72.6531 30.9555 78.2439 31.2398 83.9017C31.7744 94.5003 39.4283 101.652 46.9812 103.498C46.904 104.59 46.836 105.756 46.7824 106.985C46.46 107.116 46.1376 107.245 45.8214 107.377C38.7021 110.333 32.3666 114.177 28.5083 117.052C26.1527 118.807 24.413 120.535 23.1904 122.335C20.9069 125.697 20.4074 128.882 20.7864 130.815C21.218 133.013 23.0895 135.943 27.3114 138.274C29.5228 139.494 32.3162 140.414 35.8532 141.084C39.6425 141.801 45.1004 142.183 51.0775 142.269C53.3342 148.432 59.4019 153.484 68.6533 156.89C76.577 159.807 86.6709 161.415 97.0738 161.415C103.456 161.415 109.81 160.832 115.96 159.679C122.59 158.438 128.841 156.56 134.539 154.095C140.811 151.382 146.383 147.969 151.099 143.95C155.4 140.287 159.144 135.966 162.062 131.12C163.979 127.94 164.709 124.267 164.781 120.527C171.895 117.573 178.57 114.574 182.426 111.701C184.782 109.946 186.521 108.218 187.744 106.418C190.028 103.056 190.055 100.049 189.676 98.1176L189.674 98.1197ZM32.3862 126.974C32.0339 126.406 31.9361 125.715 32.0721 125.061C32.7972 121.571 39.3345 116.438 46.6568 113.375C46.6846 119.693 47.1851 125.579 48.1502 130.992C39.18 130.632 33.9024 129.411 32.3862 126.974ZM55.0007 133.479C50.888 116.81 54.0593 96.516 54.2746 95.1863C54.2766 95.1677 54.2622 95.1523 54.2447 95.1523C54.2365 95.1523 54.2303 95.1543 54.2241 95.1605L52.7203 96.4542C51.9128 97.1504 50.89 97.5243 49.8405 97.5243C49.5624 97.5243 49.2812 97.4986 49.0031 97.444C44.0344 96.4768 37.9832 91.5803 37.5815 83.5844C37.3734 79.4449 38.801 75.3919 41.4326 72.1906C45.5196 67.2199 52.8017 64.337 59.1639 64.337C65.8445 64.337 68.9952 68.218 70.3435 70.7631C70.9769 71.9599 71.0562 73.371 70.5557 74.6286L69.7842 76.5681C69.776 76.5887 69.7924 76.6103 69.812 76.6103C69.8161 76.6103 69.8202 76.6103 69.8244 76.6083C92.0382 66.8594 110.289 65.3618 119.415 65.3618C123.022 65.3618 125.204 65.5956 125.644 65.6481C125.672 65.6481 125.684 65.6162 125.664 65.5956L123.811 63.5892C122.785 62.4768 122.385 60.9133 122.787 59.4558C124.53 53.1461 131.705 48.2845 139.645 48.2845C144.155 48.2845 148.484 50.5124 151.887 53.3325C155.326 56.1825 159.066 60.3179 158.582 65.0909C158.142 69.4045 156.184 74.8398 152.493 77.4106C150.101 79.0761 147.127 78.1955 144.439 78.0946C144.416 78.0946 144.401 78.1203 144.413 78.1409C148.097 84.7514 151.226 91.7481 153.803 98.8572C155.243 102.83 156.626 107.022 157.488 111.291C158.381 115.711 158.803 118.795 158.239 123.603C157.66 128.718 152.831 133.587 149.31 136.999C145.442 140.747 140.96 143.827 136.183 146.296C126.368 151.367 115.343 153.973 104.369 154.793C101.942 154.974 99.5067 155.066 97.0708 155.066C80.7289 155.066 66.0834 150.937 59.7613 144.304C58.7962 143.291 58.0536 142.092 57.5397 140.792C56.7826 138.876 55.5003 135.509 54.9997 133.478L55.0007 133.479ZM163.387 108.839C162.376 104.296 160.816 99.2856 158.737 93.9225C158.515 93.3487 158.29 92.7823 158.065 92.2219C166.853 92.1519 177.367 92.5587 178.136 96.4799C178.884 100.292 173.941 104.187 163.387 108.839Z" fill="white"/>
</g>
<defs>
<clipPath id="clip0_447_1074">
<rect width="210.526" height="210.526" fill="white" transform="translate(0 0.973633)"/>
</clipPath>
</defs>
</svg>
