<svg width="211" height="212" viewBox="0 0 211 212" fill="none" xmlns="http://www.w3.org/2000/svg">
<rect width="210.526" height="210.526" transform="translate(0 0.973633)" fill="#FF0086"/>
<path d="M114.093 141.249C107.126 143.188 100.828 143.667 95.1982 142.684C89.5672 141.702 84.8189 139.412 80.9523 135.817C77.0857 132.222 74.3305 127.473 72.6866 121.569C71.4579 117.154 71.1108 112.967 71.6464 109.006C72.1819 105.046 73.523 101.406 75.6685 98.0849C77.815 94.7663 80.7731 91.8494 84.5439 89.3382C88.3137 86.8271 92.7962 84.8485 97.9894 83.4034C101.472 82.4342 104.995 81.8543 108.56 81.6638C112.124 81.4753 115.364 81.7183 118.283 82.3961C119.806 82.7174 120.925 83.3087 121.643 84.1687C122.36 85.0308 122.722 85.9619 122.728 86.962C122.733 87.9642 122.429 88.8933 121.815 89.7523C121.2 90.6113 120.319 91.2437 119.17 91.6495C118.02 92.0553 116.645 92.0811 115.045 91.7227C112.785 91.2056 110.449 91.0243 108.036 91.1809C105.623 91.3364 103.243 91.7412 100.901 92.3932C96.4043 93.6457 92.8189 95.4749 90.146 97.88C87.4722 100.288 85.75 103.174 84.9817 106.539C84.2123 109.906 84.4214 113.716 85.6058 117.972C86.7759 122.174 88.566 125.545 90.9793 128.082C93.3916 130.621 96.3641 132.229 99.897 132.907C103.429 133.587 107.443 133.299 111.941 132.047C114.347 131.377 116.652 130.464 118.854 129.305C121.056 128.148 123.055 126.747 124.849 125.1C126.048 124.021 127.214 123.366 128.345 123.137C129.475 122.909 130.502 122.982 131.425 123.355C132.348 123.729 133.058 124.319 133.556 125.125C134.053 125.933 134.242 126.855 134.122 127.891C134.001 128.928 133.466 129.951 132.519 130.959C130.415 133.208 127.721 135.233 124.436 137.035C121.15 138.838 117.702 140.243 114.092 141.247L114.093 141.249Z" fill="white"/>
<path d="M51.0601 70.3813C49.9858 69.3071 47.4232 70.128 45.3364 72.2147C43.2497 74.3015 42.4288 76.8641 43.503 77.9384C44.5773 79.0127 45.7422 76.2471 47.829 74.1604C49.9158 72.0736 52.1344 71.4567 51.0601 70.3824V70.3813Z" fill="white"/>
<path d="M131.85 56.7931C133.937 54.7064 136.155 54.0894 135.081 53.0151C134.007 51.9408 131.444 52.7618 129.357 54.8485C127.27 56.9353 126.45 59.4979 127.524 60.5722C128.598 61.6465 129.763 58.8809 131.85 56.7942V56.7931Z" fill="white"/>
<path d="M189.673 98.1197C189.242 95.9217 187.842 92.8132 183.621 90.4813C181.411 89.2607 178.629 88.6602 175.093 87.9907C170.295 87.0823 163.429 86.7372 155.778 86.831C155.281 85.7155 154.794 84.6525 154.325 83.6565C154.952 83.3661 155.554 83.021 156.125 82.6214C158.951 80.6551 161.19 77.6702 162.782 73.7511C163.973 70.8208 164.585 67.8739 164.886 65.9201C165.323 63.0948 164.865 60.2623 163.558 57.7234C162.201 55.0835 159.656 51.9626 156.752 49.3753C152.019 45.1606 146.103 41.9336 139.647 41.9336C134.584 41.9336 129.512 43.4539 125.369 46.2204C121.011 49.1271 117.919 53.2264 116.667 57.7635C116.55 58.191 116.459 58.6215 116.395 59.0593C111.879 59.2045 105.691 59.7092 98.3562 61.0873C90.8074 62.5046 83.2287 64.6151 75.7345 67.3785C74.4069 65.0168 72.592 62.9702 70.463 61.4386C67.2783 59.1479 63.4756 57.9871 59.1661 57.985C54.0779 57.985 48.9897 59.2488 44.5937 61.7033C41.6428 63.3523 38.833 65.3567 36.5289 68.1582C32.8333 72.6531 30.9546 78.2439 31.2388 83.9017C31.7734 94.5003 39.4273 101.652 46.9802 103.498C46.903 104.59 46.835 105.756 46.7814 106.985C46.459 107.116 46.1367 107.245 45.8205 107.377C38.7011 110.333 32.3657 114.177 28.5073 117.052C26.1517 118.807 24.4121 120.535 23.1895 122.335C20.906 125.697 20.4064 128.882 20.7855 130.815C21.217 133.013 23.0885 135.943 27.3105 138.274C29.5219 139.494 32.3152 140.414 35.8522 141.084C39.6415 141.801 45.0995 142.183 51.0765 142.269C53.3332 148.432 59.4009 153.484 68.6523 156.89C76.576 159.807 86.6699 161.415 97.0729 161.415C103.455 161.415 109.809 160.832 115.959 159.679C122.589 158.438 128.84 156.56 134.538 154.095C140.81 151.382 146.382 147.969 151.098 143.95C155.399 140.287 159.143 135.966 162.061 131.12C163.978 127.94 164.708 124.267 164.78 120.527C171.894 117.573 178.569 114.574 182.425 111.701C184.781 109.946 186.521 108.218 187.743 106.418C190.027 103.056 190.054 100.049 189.675 98.1176L189.673 98.1197ZM32.3852 126.974C32.033 126.406 31.9351 125.715 32.0711 125.061C32.7962 121.571 39.3336 116.438 46.6558 113.375C46.6836 119.693 47.1842 125.579 48.1493 130.992C39.1791 130.632 33.9014 129.411 32.3852 126.974ZM54.9997 133.479C50.887 116.81 54.0583 96.516 54.2736 95.1863C54.2757 95.1677 54.2612 95.1523 54.2437 95.1523C54.2355 95.1523 54.2293 95.1543 54.2231 95.1605L52.7193 96.4542C51.9118 97.1504 50.889 97.5243 49.8395 97.5243C49.5614 97.5243 49.2802 97.4986 49.0021 97.444C44.0334 96.4768 37.9822 91.5803 37.5805 83.5844C37.3725 79.4449 38.8 75.3919 41.4317 72.1906C45.5187 67.2199 52.8007 64.337 59.163 64.337C65.8435 64.337 68.9943 68.218 70.3425 70.7631C70.976 71.9599 71.0553 73.371 70.5547 74.6286L69.7832 76.5681C69.775 76.5887 69.7915 76.6103 69.811 76.6103C69.8152 76.6103 69.8193 76.6103 69.8234 76.6083C92.0372 66.8594 110.288 65.3618 119.414 65.3618C123.021 65.3618 125.203 65.5956 125.643 65.6481C125.671 65.6481 125.683 65.6162 125.663 65.5956L123.81 63.5892C122.784 62.4768 122.384 60.9133 122.786 59.4558C124.529 53.1461 131.704 48.2845 139.645 48.2845C144.154 48.2845 148.483 50.5124 151.886 53.3325C155.325 56.1825 159.065 60.3179 158.581 65.0909C158.141 69.4045 156.183 74.8398 152.492 77.4106C150.1 79.0761 147.126 78.1955 144.438 78.0946C144.415 78.0946 144.4 78.1203 144.412 78.1409C148.096 84.7514 151.225 91.7481 153.802 98.8572C155.242 102.83 156.625 107.022 157.487 111.291C158.38 115.711 158.802 118.795 158.238 123.603C157.659 128.718 152.83 133.587 149.309 136.999C145.441 140.747 140.959 143.827 136.182 146.296C126.367 151.367 115.342 153.973 104.368 154.793C101.941 154.974 99.5057 155.066 97.0698 155.066C80.7279 155.066 66.0825 150.937 59.7604 144.304C58.7953 143.291 58.0526 142.092 57.5387 140.792C56.7816 138.876 55.4993 135.509 54.9987 133.478L54.9997 133.479ZM163.386 108.839C162.375 104.296 160.815 99.2856 158.736 93.9225C158.514 93.3487 158.289 92.7823 158.064 92.2219C166.852 92.1519 177.366 92.5587 178.135 96.4799C178.883 100.292 173.94 104.187 163.386 108.839Z" fill="white"/>
</svg>
