<svg width="211" height="212" viewBox="0 0 211 212" fill="none" xmlns="http://www.w3.org/2000/svg">
<rect width="210.526" height="210.526" transform="translate(0 0.5)" fill="#00C8FF"/>
<path d="M135.68 127.396L130.283 108.007C129.913 106.678 129.2 105.772 128.145 105.292C127.091 104.812 125.77 104.793 124.188 105.233L108.514 109.597C106.93 110.038 105.801 110.696 105.123 111.573C104.445 112.449 104.277 113.5 104.618 114.723C104.944 115.894 105.631 116.705 106.678 117.159C107.726 117.613 109.04 117.619 110.624 117.178L121.073 114.269L124.723 127.376C123.132 128.292 121.493 129.143 119.802 129.925C117.323 131.075 114.817 132.001 112.286 132.705C104.939 134.751 98.9235 134.591 94.2401 132.227C89.5546 129.865 86.303 125.41 84.4819 118.867C83.283 114.559 83.076 110.691 83.8608 107.262C84.6467 103.835 86.4358 100.886 89.2292 98.4169C92.0225 95.949 95.7614 94.0621 100.449 92.7571C103.488 91.9104 106.318 91.4109 108.936 91.2543C111.554 91.0988 114.228 91.2718 116.962 91.7714C118.391 92.0052 119.606 91.895 120.607 91.4449C121.608 90.9947 122.366 90.3531 122.886 89.5208C123.404 88.6886 123.669 87.7987 123.678 86.8501C123.687 85.9025 123.398 85.0517 122.814 84.2967C122.229 83.5438 121.317 83.0236 120.077 82.7373C116.436 81.9174 112.726 81.6455 108.949 81.9236C105.171 82.2017 101.509 82.8341 97.9625 83.8219C92.5787 85.3205 87.954 87.3383 84.0895 89.8762C80.2229 92.4141 77.171 95.3568 74.9287 98.7022C72.6875 102.049 71.2867 105.721 70.7274 109.716C70.1671 113.712 70.5101 117.943 71.7543 122.412C73.3982 128.315 76.1493 133.052 80.0087 136.62C83.8681 140.188 88.6719 142.434 94.4224 143.354C100.172 144.276 106.751 143.705 114.161 141.642C117.644 140.672 121.114 139.405 124.567 137.842C128.022 136.278 131.022 134.684 133.573 133.057C134.672 132.35 135.38 131.522 135.697 130.574C136.012 129.627 136.008 128.568 135.683 127.398L135.68 127.396Z" fill="white"/>
<path d="M189.673 99.0145C189.242 96.8165 187.842 93.7079 183.621 91.376C181.411 90.1555 178.629 89.555 175.093 88.8855C170.295 87.9771 163.429 87.632 155.778 87.7257C155.281 86.6103 154.794 85.5473 154.325 84.5513C154.952 84.2608 155.554 83.9158 156.125 83.5162C158.951 81.5499 161.19 78.565 162.782 74.6459C163.973 71.7155 164.585 68.7687 164.886 66.8148C165.323 63.9896 164.865 61.1571 163.558 58.6182C162.201 55.9783 159.656 52.8574 156.752 50.2701C152.019 46.0553 146.103 42.8284 139.647 42.8284C134.584 42.8284 129.512 44.3486 125.369 47.1152C121.011 50.0218 117.919 54.1212 116.667 58.6583C116.55 59.0858 116.459 59.5163 116.395 59.954C111.879 60.0993 105.691 60.604 98.3562 61.9821C90.8074 63.3994 83.2287 65.5098 75.7345 68.2733C74.4069 65.9115 72.592 63.8649 70.463 62.3333C67.2783 60.0426 63.4756 58.8818 59.1661 58.8798C54.0779 58.8798 48.9897 60.1436 44.5937 62.598C41.6428 64.2471 38.833 66.2514 36.5289 69.053C32.8333 73.5479 30.9546 79.1387 31.2388 84.7964C31.7734 95.3951 39.4273 102.546 46.9802 104.393C46.903 105.485 46.835 106.651 46.7814 107.88C46.459 108.01 46.1367 108.14 45.8205 108.272C38.7011 111.228 32.3657 115.072 28.5073 117.947C26.1517 119.702 24.4121 121.43 23.1895 123.23C20.906 126.591 20.4064 129.777 20.7855 131.71C21.217 133.908 23.0885 136.838 27.3105 139.169C29.5219 140.389 32.3152 141.309 35.8522 141.979C39.6415 142.695 45.0995 143.078 51.0765 143.164C53.3332 149.326 59.4009 154.379 68.6523 157.785C76.576 160.702 86.6699 162.31 97.0729 162.31C103.455 162.31 109.809 161.727 115.959 160.574C122.589 159.333 128.84 157.455 134.538 154.989C140.81 152.276 146.382 148.864 151.098 144.845C155.399 141.181 159.143 136.86 162.061 132.014C163.978 128.835 164.708 125.162 164.78 121.422C171.894 118.468 178.569 115.469 182.425 112.596C184.781 110.841 186.521 109.113 187.743 107.313C190.027 103.951 190.054 100.944 189.675 99.0124L189.673 99.0145ZM32.3852 127.869C32.033 127.301 31.9351 126.61 32.0711 125.956C32.7962 122.465 39.3336 117.333 46.6558 114.27C46.6836 120.588 47.1842 126.474 48.1493 131.887C39.1791 131.527 33.9014 130.306 32.3852 127.869ZM54.9997 134.374C50.887 117.705 54.0583 97.4108 54.2736 96.081C54.2757 96.0625 54.2612 96.047 54.2437 96.047C54.2355 96.047 54.2293 96.0491 54.2231 96.0553L52.7193 97.349C51.9118 98.0452 50.889 98.4191 49.8395 98.4191C49.5614 98.4191 49.2802 98.3934 49.0021 98.3388C44.0334 97.3716 37.9822 92.475 37.5805 84.4792C37.3725 80.3397 38.8 76.2866 41.4317 73.0854C45.5187 68.1147 52.8007 65.2317 59.163 65.2317C65.8435 65.2317 68.9943 69.1127 70.3425 71.6579C70.976 72.8547 71.0553 74.2658 70.5547 75.5234L69.7832 77.4629C69.775 77.4835 69.7915 77.5051 69.811 77.5051C69.8152 77.5051 69.8193 77.5051 69.8234 77.5031C92.0372 67.7542 110.288 66.2566 119.414 66.2566C123.021 66.2566 125.203 66.4904 125.643 66.5429C125.671 66.5429 125.683 66.511 125.663 66.4904L123.81 64.484C122.784 63.3716 122.384 61.808 122.786 60.3506C124.529 54.0409 131.704 49.1793 139.645 49.1793C144.154 49.1793 148.483 51.4072 151.886 54.2273C155.325 57.0773 159.065 61.2127 158.581 65.9857C158.141 70.2993 156.183 75.7346 152.492 78.3054C150.1 79.9709 147.126 79.0903 144.438 78.9893C144.415 78.9893 144.4 79.0151 144.412 79.0357C148.096 85.6462 151.225 92.6429 153.802 99.7519C155.242 103.725 156.625 107.917 157.487 112.186C158.349 116.455 158.802 119.689 158.238 124.497C157.659 129.612 152.83 134.482 149.309 137.894C145.441 141.642 140.959 144.721 136.182 147.19C126.367 152.262 115.342 154.868 104.368 155.688C101.941 155.869 99.5057 155.961 97.0698 155.961C80.7279 155.961 66.0825 151.831 59.7604 145.198C58.7953 144.186 58.0526 142.987 57.5387 141.687C56.7816 139.771 55.4993 136.404 54.9987 134.373L54.9997 134.374ZM163.386 109.734C162.375 105.19 160.815 100.18 158.736 94.8172C158.514 94.2435 158.289 93.677 158.064 93.1167C166.852 93.0467 177.366 93.4535 178.135 97.3747C178.883 101.187 173.94 105.082 163.386 109.734Z" fill="white"/>
<path d="M51.3193 71.2761C50.245 70.2018 47.6824 71.0227 45.5956 73.1095C43.5088 75.1963 42.6879 77.7589 43.7622 78.8332C44.8365 79.9075 46.0014 77.1419 48.0882 75.0552C50.1749 72.9684 52.3935 72.3514 51.3193 71.2771V71.2761Z" fill="white"/>
<path d="M132.109 57.6879C134.196 55.6012 136.414 54.9842 135.34 53.9099C134.266 52.8356 131.703 53.6565 129.616 55.7433C127.53 57.8301 126.709 60.3927 127.783 61.467C128.857 62.5412 130.022 59.7757 132.109 57.6889V57.6879Z" fill="white"/>
</svg>
