<svg width="211" height="212" viewBox="0 0 211 212" fill="none" xmlns="http://www.w3.org/2000/svg">
<g clip-path="url(#clip0_447_1073)">
<path d="M105.263 211.026C163.398 211.026 210.526 163.898 210.526 105.763C210.526 47.6279 163.398 0.5 105.263 0.5C47.1279 0.5 0 47.6279 0 105.763C0 163.898 47.1279 211.026 105.263 211.026Z" fill="#00C8FF"/>
<path d="M135.679 127.396L130.281 108.007C129.912 106.678 129.199 105.772 128.144 105.292C127.09 104.812 125.769 104.793 124.187 105.233L108.513 109.597C106.928 110.038 105.8 110.696 105.122 111.573C104.444 112.449 104.276 113.5 104.617 114.723C104.943 115.894 105.63 116.705 106.677 117.159C107.725 117.613 109.039 117.619 110.623 117.178L121.072 114.269L124.722 127.376C123.131 128.292 121.492 129.143 119.801 129.925C117.322 131.075 114.816 132.001 112.284 132.705C104.938 134.751 98.9224 134.591 94.239 132.227C89.5535 129.865 86.3019 125.41 84.4808 118.867C83.2819 114.559 83.0749 110.691 83.8597 107.262C84.6456 103.835 86.4347 100.886 89.2281 98.4169C92.0214 95.949 95.7603 94.0621 100.448 92.7571C103.487 91.9104 106.317 91.4109 108.935 91.2543C111.553 91.0988 114.227 91.2718 116.961 91.7714C118.39 92.0052 119.605 91.895 120.606 91.4449C121.607 90.9947 122.365 90.3531 122.885 89.5208C123.403 88.6886 123.668 87.7987 123.677 86.8501C123.685 85.9025 123.397 85.0517 122.813 84.2967C122.228 83.5438 121.315 83.0236 120.076 82.7373C116.435 81.9174 112.725 81.6455 108.948 81.9236C105.17 82.2017 101.508 82.8341 97.9614 83.8219C92.5776 85.3205 87.9529 87.3383 84.0884 89.8762C80.2218 92.4141 77.1699 95.3568 74.9277 98.7022C72.6864 102.049 71.2856 105.721 70.7263 109.716C70.166 113.712 70.509 117.943 71.7532 122.412C73.3971 128.315 76.1482 133.052 80.0076 136.62C83.867 140.188 88.6708 142.434 94.4213 143.354C100.171 144.276 106.75 143.705 114.16 141.642C117.642 140.672 121.113 139.405 124.566 137.842C128.021 136.278 131.021 134.684 133.572 133.057C134.671 132.35 135.379 131.522 135.696 130.574C136.011 129.627 136.007 128.568 135.682 127.398L135.679 127.396Z" fill="white"/>
<path d="M189.674 99.0145C189.243 96.8165 187.843 93.7079 183.622 91.376C181.412 90.1555 178.63 89.555 175.094 88.8855C170.296 87.9771 163.43 87.632 155.779 87.7257C155.282 86.6103 154.795 85.5473 154.326 84.5513C154.953 84.2608 155.555 83.9158 156.126 83.5162C158.952 81.5499 161.191 78.565 162.783 74.6459C163.974 71.7155 164.586 68.7687 164.886 66.8148C165.324 63.9896 164.866 61.1571 163.559 58.6182C162.202 55.9783 159.657 52.8574 156.753 50.2701C152.02 46.0553 146.104 42.8284 139.648 42.8284C134.585 42.8284 129.513 44.3486 125.37 47.1152C121.012 50.0218 117.92 54.1212 116.668 58.6583C116.551 59.0858 116.46 59.5163 116.395 59.954C111.88 60.0993 105.692 60.604 98.3572 61.9821C90.8084 63.3994 83.2297 65.5098 75.7355 68.2733C74.4078 65.9115 72.593 63.8649 70.464 62.3333C67.2793 60.0426 63.4765 58.8818 59.167 58.8798C54.0789 58.8798 48.9907 60.1436 44.5947 62.598C41.6438 64.2471 38.834 66.2514 36.5299 69.053C32.8343 73.5479 30.9555 79.1387 31.2398 84.7964C31.7744 95.3951 39.4283 102.546 46.9812 104.393C46.904 105.485 46.836 106.651 46.7824 107.88C46.46 108.01 46.1376 108.14 45.8214 108.272C38.7021 111.228 32.3666 115.072 28.5083 117.947C26.1527 119.702 24.413 121.43 23.1904 123.23C20.9069 126.591 20.4074 129.777 20.7864 131.71C21.218 133.908 23.0895 136.838 27.3114 139.169C29.5228 140.389 32.3162 141.309 35.8532 141.979C39.6425 142.695 45.1004 143.078 51.0775 143.164C53.3342 149.326 59.4019 154.379 68.6533 157.785C76.577 160.702 86.6709 162.31 97.0738 162.31C103.456 162.31 109.81 161.727 115.96 160.574C122.59 159.333 128.841 157.455 134.539 154.989C140.811 152.276 146.383 148.864 151.099 144.845C155.4 141.181 159.144 136.86 162.062 132.014C163.979 128.835 164.709 125.162 164.781 121.422C171.895 118.468 178.57 115.469 182.426 112.596C184.782 110.841 186.521 109.113 187.744 107.313C190.028 103.951 190.055 100.944 189.676 99.0124L189.674 99.0145ZM32.3862 127.869C32.0339 127.301 31.9361 126.61 32.0721 125.956C32.7972 122.465 39.3345 117.333 46.6568 114.27C46.6846 120.588 47.1851 126.474 48.1502 131.887C39.18 131.527 33.9024 130.306 32.3862 127.869ZM55.0007 134.374C50.888 117.705 54.0593 97.4108 54.2746 96.081C54.2766 96.0625 54.2622 96.047 54.2447 96.047C54.2365 96.047 54.2303 96.0491 54.2241 96.0553L52.7203 97.349C51.9128 98.0452 50.89 98.4191 49.8405 98.4191C49.5624 98.4191 49.2812 98.3934 49.0031 98.3388C44.0344 97.3716 37.9832 92.475 37.5815 84.4792C37.3734 80.3397 38.801 76.2866 41.4326 73.0854C45.5196 68.1147 52.8017 65.2317 59.1639 65.2317C65.8445 65.2317 68.9952 69.1127 70.3435 71.6579C70.9769 72.8547 71.0562 74.2658 70.5557 75.5234L69.7842 77.4629C69.776 77.4835 69.7924 77.5051 69.812 77.5051C69.8161 77.5051 69.8202 77.5051 69.8244 77.5031C92.0382 67.7542 110.289 66.2566 119.415 66.2566C123.022 66.2566 125.204 66.4904 125.644 66.5429C125.672 66.5429 125.684 66.511 125.664 66.4904L123.811 64.484C122.785 63.3716 122.385 61.808 122.787 60.3506C124.53 54.0409 131.705 49.1793 139.645 49.1793C144.155 49.1793 148.484 51.4072 151.887 54.2273C155.326 57.0773 159.066 61.2127 158.582 65.9857C158.142 70.2993 156.184 75.7346 152.493 78.3054C150.101 79.9709 147.127 79.0903 144.439 78.9893C144.416 78.9893 144.401 79.0151 144.413 79.0357C148.097 85.6462 151.226 92.6429 153.803 99.7519C155.243 103.725 156.626 107.917 157.488 112.186C158.35 116.455 158.803 119.689 158.239 124.497C157.66 129.612 152.831 134.482 149.31 137.894C145.442 141.642 140.96 144.721 136.183 147.19C126.368 152.262 115.343 154.868 104.369 155.688C101.942 155.869 99.5067 155.961 97.0708 155.961C80.7289 155.961 66.0834 151.831 59.7613 145.198C58.7962 144.186 58.0536 142.987 57.5397 141.687C56.7826 139.771 55.5003 136.404 54.9997 134.373L55.0007 134.374ZM163.387 109.734C162.376 105.19 160.816 100.18 158.737 94.8172C158.515 94.2435 158.29 93.677 158.065 93.1167C166.853 93.0467 177.367 93.4535 178.136 97.3747C178.884 101.187 173.941 105.082 163.387 109.734Z" fill="white"/>
<path d="M51.3193 71.2761C50.245 70.2018 47.6824 71.0227 45.5956 73.1095C43.5088 75.1963 42.6879 77.7589 43.7622 78.8332C44.8365 79.9075 46.0014 77.1419 48.0882 75.0552C50.1749 72.9684 52.3935 72.3514 51.3193 71.2771V71.2761Z" fill="white"/>
<path d="M132.109 57.6879C134.196 55.6012 136.414 54.9842 135.34 53.9099C134.266 52.8356 131.703 53.6565 129.616 55.7433C127.53 57.8301 126.709 60.3927 127.783 61.467C128.857 62.5412 130.022 59.7757 132.109 57.6889V57.6879Z" fill="white"/>
</g>
<defs>
<clipPath id="clip0_447_1073">
<rect width="210.526" height="210.526" fill="white" transform="translate(0 0.5)"/>
</clipPath>
</defs>
</svg>
